<svg xmlns="http://www.w3.org/2000/svg" viewBox="0 0 423 437"><defs><style>.cls-1{fill:#000005}.cls-2{fill:#fff}.cls-3{fill:#b9ff66}</style></defs><g id="Layer_1"><g id="brain"><path class="cls-3" d="M199.2 80.3s-8.7-26.5-45.9-16.3-41.3 42.1-41.3 42.1-29.5 11.5-41.4 44 8.1 68.2 8.1 68.2-31.1 48.3-16.7 79.8 32.8 32.3 32.8 32.3-13.2 47 25.2 80.4 92.6-14.9 92.6-14.9 19 36.5 59.9 31.3 66.7-45.9 61-101.4c0 0 37.3-13.1 33.3-60.8s-21-59-21-59 10.7-51.9-5.6-81.6-46.3-30.8-46.3-30.8-10.4-32.4-40.3-36.4-54.4 23.1-54.4 23.1z"/><path class="cls-3" d="M264.5 428.1c-32.9 0-49.8-27.3-52.2-31.5-9.6 8-20.2 14.6-31.6 19.7-24.2 10.4-45.4 8.6-61.2-5.2-35.9-31.3-26.8-74.8-25.5-80.4-3.4-.4-19.6-3.8-32.6-32.5-13.8-30.3 14.2-76.2 16.6-80-1.8-3.3-19.3-37.4-8-68.3 11.2-30.7 38.4-42.9 41.4-44.2.6-3.2 6.4-32.5 41.6-42.2 10.7-2.9 25.9-4.6 37.4 4.4 3.9 3 6.9 6.9 8.9 11.4 3.8-4 26.7-26.4 54.1-22.7 28.2 3.8 39.4 33 40.6 36.4 19.6 2.1 37 13.7 46.4 31.1 15.6 28.2 6.6 77.2 5.8 81.6 2.3 1.7 17.2 14.5 21 59.1 3.8 44.9-29.4 59.6-33.3 61.1 5.4 54.5-19.8 96.2-61.5 101.5-2.6.5-5.2.7-7.9.7zM212.6 395l.3.6c.2.4 19.3 36.2 59.4 31 41.2-5.2 66.1-46.7 60.6-100.8v-.4h.4c.4-.2 36.9-13.7 33-60.4-2.1-24.5-7.6-39.1-11.9-47.1-4.6-8.6-8.9-11.5-8.9-11.5l-.3-.2v-.3c.2-.5 10.6-52.1-5.5-81.3-9.3-17.2-26.5-28.6-45.9-30.6h-.4v-.3c-.2-.3-10.8-32.1-40-36.1s-53.5 22.7-53.8 23l-.6.7-.3-.8c-1.8-4.7-4.9-8.7-8.9-11.8-8.8-6.9-21.4-8.3-36.4-4.2-19 5.2-29.2 16.3-34.3 24.6-3.3 5.2-5.6 11-6.7 17v.3h-.3c-.3.2-29.4 11.9-41.1 43.8s7.8 67.4 8 67.7l.2.3-.2.3c-.3.5-30.8 48.4-16.6 79.4 7.4 16.2 15.8 24 21.6 27.8 6.2 4 10.7 4.2 10.7 4.2h.6l-.2.6c-.1.5-12.7 47.1 25 79.9 19.6 17.1 43.5 12.1 60.1 5 11.5-5.1 22.2-11.8 31.7-19.9l.7-.5z"/><circle class="cls-2" cx="180.5" cy="110" r="8.3"/><path class="cls-2" d="M186.4 109.2c0 3.1-1.8 5.9-4.5 7.4-1.4.7-3 .9-4.5.8.5.2.9.3 1.4.4-.3-.2-.6-.3-.9-.6-.6-.5-1.2-1-1.7-1.7-1.9-2.5-2.1-5.9-.6-8.7 1.4-2.8 4.3-4.4 7.4-4.4s.4.1.6.1-1.9-.9-1.4-.4h.1c.2.2.4.3.6.5.6.5 1.2 1 1.7 1.6 1.2 1.4 1.8 3.2 1.8 5s2 .9 2.3 1c.2 0 2.5.7 2.5.5 0-1.9-.6-3.7-1.8-5.1-1.3-1.6-3-2.7-5-3.4-2.3-.9-5-1.7-7.5-1.3-1.8.3-3.5 1.2-4.7 2.5-2.6 2.8-3 7-.9 10.2 1.1 1.6 2.7 2.9 4.5 3.6 2.4 1.1 5 1.7 7.6 1.7 4.4-.3 7.7-3.9 7.8-8.3 0-.4-2-.9-2.3-1s-2.5-.6-2.5-.4z"/><circle class="cls-2" cx="180.1" cy="210" r="8.3"/><path class="cls-2" d="M186.1 209.2c-.1 3-1.9 5.8-4.6 7-.6.3-1.3.5-2 .5-.6.1-1.2 0-1.9-.1s.4.2-.3-.1c-.1-.1-.3-.1-.4-.1.6.2-.1-.1-.2-.1.1 0 .4.3 0 0l-.3-.2-.3-.2c-.5-.4.1.1-.2-.1-.2-.2-.3-.4-.5-.6-3.8-4.8.5-12.8 6.7-12-.3-.1.4.1.4.1.6.1-.3-.2.3.1 0 0 .6.3.3.1s.7.4.1 0l.4.2q.2.2 0 0l.3.3c.2.2.4.3.5.6 1 1.3 1.6 2.9 1.6 4.6s4.6 3.2 4.6 1.6c-.1-8.9-12.9-14.2-19-7.4-2.5 3-2.9 7.3-.8 10.6 2.6 4 7.2 6.2 11.9 5.7 4.4-.6 7.8-4.4 7.8-8.8.2-1.6-4.4-3.4-4.4-1.7z"/><circle class="cls-2" cx="121.6" cy="215.6" r="8.3"/><path class="cls-2" d="M127.5 215c0 3.1-1.8 6-4.6 7.4-.7.3-1.4.5-2.1.7-.4.1-.7.1-1.1.1h-.5s1.2.5.6.1c-.3-.2-.6-.3-.9-.5-.6-.5-1.2-1-1.7-1.7-2.7-3.6-2-8.7 1.6-11.4 1.2-.9 2.5-1.4 4-1.6.4-.1.8 0 1.2 0h-.1c.3.1-.8-.2-.9-.2.3.2.6.4.9.5.7.5 1.2 1 1.7 1.6 1.3 1.4 1.9 3.2 1.9 5s2 .9 2.3 1c.2.1 2.5.6 2.5.3-.1-4.1-2.9-7.1-6.6-8.4-4.2-1.5-9.1-2.1-12.5 1.4-2.6 2.8-3 7-.9 10.2 1.1 1.6 2.6 2.8 4.4 3.5 2.4 1.1 5.1 1.6 7.8 1.5 4.4-.3 7.8-3.9 7.8-8.3s-2-.9-2.3-1c-.2 0-2.5-.6-2.5-.2z"/><circle class="cls-2" cx="113.8" cy="284.4" r="8.3"/><path class="cls-2" d="M119.7 285.1c0 1.6-.5 3.1-1.3 4.5-.6.9-1.3 1.7-2.2 2.2l-.4.2c-.1 0-.8.3-.2.1.3-.1.7-.4 1-.3s-.1 0-.2 0h-1c-.8-.1-1.5-.2-2.3-.5-1.4-.6-2.7-1.6-3.6-2.8-1.8-2.6-2-5.9-.5-8.7.7-1.3 1.8-2.4 3.1-3.1.1 0 .3 0 .2-.1s-1.1.4-1.2.4h.6c.8 0 1.6.1 2.3.4 3.4 1 5.7 4.1 5.7 7.7s2.3-.3 2.5-.3c.4-.1 2.3-.5 2.3-1-.1-3.8-2.6-7.1-6.2-8.1-2.3-.5-4.8-.3-7 .5-2.2.5-4.3 1.7-5.9 3.3-2.6 2.8-2.9 7.1-.8 10.2 1 1.5 2.5 2.7 4.2 3.3 2.1.6 4.3.6 6.4 0 2.5-.6 5.2-1.6 7-3.5 1.4-1.6 2.2-3.6 2.3-5.7 0-.3-2.3.3-2.5.3-.4 0-2.3.4-2.3 1z"/><circle class="cls-2" cx="171.1" cy="354.1" r="8.3"/><path class="cls-2" d="M176.9 354.2c0 2.9-1.7 5.5-4.2 6.7.2-.1-.4.1-.4.1s-.7.2-.4.1-.4.1-.4 0c.5-.1 0 0-.1 0h-.7c-.4 0 .5.1-.2 0-.2 0-.4-.1-.6-.2l-.3-.1c-.1-.1-.3-.1-.4-.2-.3-.1-.5-.3-.7-.4-.6-.4-1.1-.9-1.6-1.5-1.8-2.4-2-5.7-.6-8.4.7-1.2 1.7-2.2 2.9-2.8.4-.2.9-.3 1.3-.4.4-.1-.6 0 .1 0h.4.4c.5 0-.2-.1.3 0 .3.1.7.2 1 .3.3.1.6.3.9.5.6.4 1.2.9 1.6 1.5 1.2 1.3 1.8 3 1.7 4.8 0 1.6 5 1.5 5-.2-.1-4-2.8-7.5-6.6-8.7-4.2-1.4-9.6-.5-12.6 2.9-2.6 3-3 7.3-.9 10.7 2.4 3.8 7.3 5.2 11.6 4.4 4.7-.8 8.5-4.4 8.6-9.3-.1-1.6-5.1-1.5-5.1.2z"/><circle class="cls-2" cx="149.2" cy="290.2" r="8.3"/><path class="cls-2" d="M155 290c0 3.1-1.8 6-4.6 7.3-.6.3-1.2.5-1.9.6-.2 0 0 .1-.3 0h.4c.4 0 .1 0-.1-.1-1.4-.5-2.6-1.5-3.5-2.7-1.8-2.5-2.1-5.9-.6-8.7.7-1.4 1.8-2.5 3.2-3.2.6-.3 1.2-.6 1.9-.7.2-.1.6-.1.7-.1h-.2c-.1 0-.5-.1-.1 0 .7.2 1.3.6 1.9.9.6.5 1.2 1 1.7 1.6.9 1.5 1.5 3.3 1.5 5.1s5 1 5 .4c-.1-3.9-2.7-7.2-6.4-8.3-4.1-1.3-9.8-1.2-12.9 2.2-2.6 2.8-2.9 7-.9 10.2 2.5 3.9 7.9 4.9 12.2 4.3 4.4-.4 7.9-4 8-8.5 0-.7-5-1-5-.3z"/><circle class="cls-2" cx="232" cy="195.3" r="8.3"/><path class="cls-2" d="M237.8 195.7c0 3.1-1.8 6-4.6 7.3-.2.1-.3.1-.5.2-.1.1.1 0 .1 0 .4-.1.8-.1 1.1-.2h-.4c-.8-.1-1.5-.2-2.2-.5-1.4-.6-2.7-1.6-3.6-2.8-1.8-2.5-2-5.9-.6-8.6.7-1.4 1.8-2.5 3.2-3.2.3-.2.7-.2 1-.4-.1 0-.7.1-1 .1h.7c.4.2.8.2 1.2.4 3.3 1 5.7 4.1 5.6 7.7 0 .4 2.3 0 2.6 0s2.4-.3 2.4-.7c-.1-3.8-2.6-7.1-6.2-8.1-2.6-.5-5.3-.4-7.8.3-2 .4-3.8 1.4-5.2 2.9-2.6 2.8-2.9 7-.8 10.2 1 1.5 2.5 2.7 4.2 3.3 2.4.7 4.9.7 7.3.1 2.4-.3 4.6-1.4 6.3-3 1.4-1.6 2.2-3.6 2.3-5.7 0-.4-2.3 0-2.5 0s-2.5.3-2.6.7z"/><circle class="cls-2" cx="275" cy="194.3" r="8.3"/><path class="cls-2" d="M281.5 193c-.1 3-1.9 5.7-4.7 6.9-1.4.6-2.9.7-4.3.5-.6-.1-1.3-.3-1.9-.6s-.4-.3-.6-.4c-.6-.4.2.2-.1-.1l-.2-.2-.3-.3c-.4-.5.2.4-.1-.2s-.1-.1 0 0l-.3-.6c0 .1.1.3 0-.1-.1-.2-.1-.4-.2-.6-.1-.3-.1-.7-.1-1-.1-1.5.3-3 1-4.3 1.5-2.6 4.4-4.1 7.3-3.8.8.1 1.6.3 2.3.6l.4.2q.2.1.1.1l.4.2c.1 0 .4.3 0 0 .2.1.3.3.5.4-.4-.4.1.1.1.2.4.5-.2-.4.1.2l.1.2c0 .1.3.6.1.3.3.7.4 1.5.4 2.4.2 1.2.9 2.2 1.9 2.9.6.4 1.7.9 1.7-.2-.2-4.6-3-8.8-7.2-10.7-3.6-1.7-8-.9-10.7 2.1-6 7 1.5 18.6 10.2 17.6 4.4-.7 7.7-4.5 7.6-8.9-.2-1.2-.9-2.2-1.9-2.9-.5-.6-1.6-1.1-1.6 0z"/><circle class="cls-2" cx="304.8" cy="278" r="8.3"/><path class="cls-2" d="M310.8 277.4c-.1 2.7-1.7 5.2-4.2 6.3-1.2.5-2.6.6-3.9.3 0 0-.8-.2-.3 0l-.4-.2-.6-.3c-.1 0-.4-.3 0 0l-.9-.6c.4.3 0 0-.1-.1s-.3-.4-.5-.6c-.3-.3-.1-.1 0 0-.1-.2-.3-.4-.4-.5l-.2-.4c-.3-.6.1.4-.1-.3-.3-.6-.4-1.3-.5-2-.1-1.4.2-2.7.9-3.9.7-1.2 1.8-2.2 3.1-2.9.6-.2 1.1-.4 1.7-.5.3-.1.6-.1.8-.1h.6s.7.1.3 0c.2 0 .4.1.7.1 0 0 .7.2.2 0 .4.2.8.3 1.2.5-.4-.2-.1-.1 0 0l.7.5c-.1-.1-.4-.4 0 0s.3.3.4.5.5.6.2.2c.1.2.2.4.4.5s.2.4.3.6c-.2-.3.1.2.1.3.3.7.4 1.5.4 2.3 0 2.2 4.6 3.9 4.5 1.1-.2-4.5-2.9-8.4-7.1-10-4.1-1.7-8.8-.7-11.7 2.6-2.7 3.3-3 8-.7 11.6 2.4 4 6.9 6.1 11.5 5.4 4.7-.8 8.1-4.9 8.1-9.6.1-1.9-4.5-3.6-4.5-.8z"/><circle class="cls-2" cx="272.3" cy="240.9" r="8.3"/><path class="cls-2" d="M278.2 240.4c0 .4 0 .8-.1 1.1 0 .2-.1.4-.1.7 0 0-.1.4 0 .1-.1.3-.2.7-.4 1l-.3.6c0 .1-.4.6-.1.2-.4.6-.9 1.1-1.5 1.6.3-.2 0 0-.1 0l-.5.4-.4.2-.4.2q.2-.1 0 0c-.3.1-.7.2-1 .3h-.5c.4 0-.1.1-.2.1h-1c.3 0-.4-.1-.4 0h-.7c-.1-.1-.8-.4-.2-.1l-.4-.2-.6-.3c-.2-.1-.4-.2 0 0l-.9-.6s-.5-.5-.3-.2-.3-.4-.4-.4l-.6-.9c.2.4 0 0 0 0l-.3-.6-.2-.4c-.2-.6.1.4-.1-.3-.1-.4-.2-.8-.2-1.2v-.7c0-.4.1-.8.1-1.1 0 0 .2-.7 0-.3 0-.1.1-.3.1-.4.2-.4.3-.8.5-1.2l.2-.3.2-.3c.2-.3.5-.5.7-.8.5-.5 1-.9 1.7-1.1.1 0 .4-.2.1 0 .2-.1.4-.2.6-.2.3-.1.7-.2 1-.2.4-.1-.5 0 .2 0h1.2H273.8c.1.1.7.4.2.1.4.2.8.4 1.2.5-.4-.2-.1-.1 0 0s.5.3.7.5l.3.3c-.4-.3.1.1.1.2.3.3.6.6.8 1-.3-.4.1.2.1.2l.3.6.1.3c-.1-.3.1.5.1.6s0 .3.1.4.4.8.4.6c0 1.2.9 2.3 2.2 2.6 1 .2 2.7-.4 2.7-1.7 0-4.5-2.7-8.5-6.8-10.2-4.2-1.7-9.1-.6-12.1 2.8-2.9 3.3-3.3 8.1-1.2 11.9 2.3 4 7 6.2 11.6 5.4 4.8-.9 8.3-5 8.4-9.8 0-1.3-.9-2.4-2.1-2.7-1.1-.2-2.7.4-2.7 1.7z"/><circle class="cls-2" cx="244.2" cy="279.6" r="8.3"/><path class="cls-2" d="M250 279.4c0 .6-.1 1.3-.2 1.9-.1.3-.2.7-.4 1l-.3.6c-.2.4.1-.1-.2.3-.2.3-.4.6-.7.8l-.3.3c-.4.5.3-.2-.2.2l-.9.6-.4.2c.4-.2-.3.1-.4.1s-.4.1-.5.2c-.6.2.3 0-.1 0-.4.1-.7.1-1.1.2h-.7c-.2 0-.4 0-.6-.1.5.1-.1 0-.2-.1l-.6-.2c-.1 0-.4-.2 0 0-.3-.2-.6-.3-1-.5 0 0-.5-.4-.3-.2s-.3-.2-.3-.2l-.9-.9c.2.3 0 0 0-.1s-.2-.4-.4-.5l-.2-.4s-.3-.6-.2-.3c-.3-.7-.5-1.4-.5-2.1-.1-1.4.2-2.8.9-3.9.3-.6-.1.1.1-.2.1-.1.2-.3.3-.4.2-.3.5-.5.7-.8.5-.5-.2.1.1-.1.1-.1.3-.2.4-.3l.4-.2c.1 0 .8-.4.4-.2.3-.1.7-.3 1-.4.1 0 .5-.1 0 0 .2 0 .4-.1.5-.1h.5c.7-.1-.3 0 .1 0s.8 0 1.2.1c-.6-.1.1 0 .2.1l.6.2c.6.2-.2-.1.1 0s.5.2.7.4l.4.2q.2.2 0 0l.3.3c.3.2.5.5.8.8.4.5-.2-.3.2.2.1.2.2.4.4.5l.3.6c.2.4 0-.1.1.3.7.5.9 1.3.9 2.1.1 1.2 1.1 2.2 2.3 2.2s2.7-.5 2.7-1.8c-.1-4.4-2.8-8.3-7-9.8-4.3-1.6-9.1-.4-12.1 3-2.8 3.3-3.2 7.9-1 11.6 2.4 3.8 6.9 5.8 11.3 5.1 4.9-.8 8.6-4.9 8.8-9.9-.1-1.2-1.1-2.2-2.3-2.2-1.1 0-2.7.5-2.7 1.8zm-125.9 61.2l-2.5-19.7-4-31.5-.9-7.3c-.1-.7-5 0-4.9.8l2.5 19.8 4 31.5.9 7.3c0 .7 5 0 4.9-.9zM123 215.3v-50.4c-.1-1.2-.8-2.3-1.7-3-.5-.4-1.7-1-1.7.1v50.4c.1 1.2.8 2.3 1.7 3 .5.4 1.7 1 1.7-.1zm24.4-83.7l30.2-20.2 4.3-2.9-3.8.4v42.7c-.1 0-.2 33.1-.2 33.1v22.8c0 1.1 0 2.2-.1 3.3-.4 1.4-.9 2.7-1.6 4l-9.3 24.1-11.9 30.7-7.7 20c-.4.9-.5 1.9-.4 2.8l.3 12 .8 29.1v1.9c.1 1.5 4.8 0 4.8-1.4l-.6-22.9-.4-15.3V291c-.1-.5-.1-1-.1-1.5.1-.4.3-.8.5-1.2l1.2-3 4-10.4 11.5-29.8 10.5-27.4 2.8-7.2c.3-.6.4-1.3.4-1.9v-50.1c.1 0 .2-31.8.2-31.8v-19.2c0-1.6-3.3 0-3.8.4l-30.2 20.2-4.3 2.9c-.6.4-1.3 1.2-.3 1.6s2.5-.4 3.3-1h-.1zm32.9 160.9l-2.1 11.1-4.4 23.3-4 21.2c-.3 1.7-.7 3.4-1 5.1-.2.5-.2 1.1 0 1.6.4.7.8 1.4 1.3 2.1l10.6 17.8.3.4c.6 1.1 2 1.6 3.2 1.2.9-.3 2.2-1.5 1.6-2.6L175 355.9l-1.5-2.5v1c.1 0 4-20.7 4-20.7l6.2-33 1.4-7.5c.6-2.7-4.3-3.2-4.8-.7z"/><path class="cls-2" d="M244.9 320.2l1.4-34.8.2-5c.1-1.3-.7-2.5-1.9-3-.9-.4-2.5 0-2.6 1.2l-1.4 34.8-.2 5c-.1 1.3.7 2.5 1.9 3 .9.4 2.5 0 2.6-1.2zM229.2 112l.2 21.7.3 40.3c.1 7.2-.1 14.6.2 21.8.1 1.4 1 2.1 1.8 3.1l3.8 4.4 12.1 13.8 21 23.9.4.4-.5-1.1 7 34.4 1 4.9c.3 1.3 1.4 2.2 2.7 2.3.9.1 1.7-.6 1.8-1.5v-.5l-3.8-18.5c-1.4-6.8-2.5-13.8-4.2-20.5-.3-1.4-1.5-2.4-2.4-3.4l-6.4-7.3-18.3-20.8-7.8-8.9c-1.3-1.5-2.6-3.2-4.1-4.6l-.2-.2.5 1.6-.2-28.5-.4-45v-10.3c-.1-1.3-1-2.4-2.2-2.8-.8-.4-2.3 0-2.3 1.3zm58.9 29.7l-5.2 17.4-8.3 27.7-1.9 6.4c-.4 1.2 4.2 3.1 4.5 2.3l5.2-17.4 8.3-27.7 1.9-6.4c.3-1.2-4.2-3.1-4.5-2.3zm14 64.7v71.2c-.1.4-.1.8 0 1.1.1.4.3-.6.1-.1s-.3.6-.4 1l-4.5 11.4-16.4 41c-3.8 9.4-7.5 18.8-11.2 28.1l-.2.5c-1 2.5 3.8 2.3 4.6.5l9.5-23.8 16.7-41.8 5.5-13.7c.4-.9.7-1.8 1.1-2.7.2-.6.3-1.2.2-1.8v-71.2c-.1-2.5-5-1.7-5 .3zm-92-94.5v214.3c0 2.9-.2 5.8 0 8.7v.4c0 .8 5 1.1 5 .7V121.7c0-2.9.2-5.9 0-8.7v-.4c0-.8-5-1.1-5-.7z"/><path class="cls-1" d="M60.2 233.7c-.5.1.9-.2 0 0l-1.4.3-1 .2c-.3.1-1.6.3-.6.1-.9.2-1.9.4-2.8.5l-1.6.2H52c-.5.2.5 0 0 .1h-.6c-1.2.2-2.5.4-3.7.4s-2.1.1-3.6.1-2.8 0-3.9-.1c-5.3-.4-10.7-1.7-14.9-5.1-4.9-3.9-6.5-10.1-6.3-16.1.2-4.7 1.2-9.3 2.7-13.7 1.1-3.6 2.5-7 4.2-10.3 2.4-4.3 5.3-8.4 8.5-12.1 8.7-10.3 18.9-19.1 29.4-27.5 13.4-10.5 27.3-20.3 41.7-29.2 15.6-9.8 31.7-18.9 48.1-27.2 15.9-8.1 32.2-15.3 48.8-21.6 7.6-2.9 14.8-5.3 22.7-7.6 3.8-1.1 6.5-1.8 10.3-2.7 1.7-.4 3.4-.8 5.1-1.1l1.3-.2h.8l2.4-.7c3.5-.6 5.9-.9 9.2-1.2 2.8-.3 5.6-.4 8.4-.4 4.9 0 9.8.6 14.6 1.9 4.1 1.1 7.8 3.2 10.9 6.1 2.9 2.9 5 6.6 6 10.6.6 2.3.9 4.6 1 6.9 0 .6 4.9 0 4.9-1.1-.1-4.6-1.3-9.1-3.5-13.2-2.2-3.5-5.2-6.4-8.9-8.3-9.3-5-20.9-4.9-31.1-3.9-15 1.4-29.8 5.4-44.1 10.1-16.9 5.7-33.5 12.5-49.6 20.2-17.1 8.1-33.8 17.1-50.1 26.8-15.4 9.1-30.2 18.9-44.6 29.6-11.8 8.8-23.4 18.2-33.6 28.9-3.9 4-7.4 8.3-10.6 12.9-3.6 5.5-6.3 11.6-8 18-2 7.1-3.4 15.7.3 22.6 2.7 5 7.6 7.8 12.9 9.2 9.7 2.6 20.6 1.3 30.2-.9l2.4-.6c.8-.2 2-.5 1.5-1.1s-2.6.1-3 .2zm11 106.7c-3.5 3.7-6.8 7.6-10.1 11.5-6.9 8.2-13.2 17-18.7 26.2-4.9 8.5-9.8 18.3-9.6 28.3 0 4.1 1.4 8 4 11.1 3.3 3.8 8 6 12.8 7.2 6.6 1.5 13.4 1.6 20 .3 7.5-1.4 15-3.3 22.3-5.7 9.3-3 18.4-6.4 27.4-10.1 10.7-4.3 21.3-9 31.8-13.8 11.7-5.4 23.3-11 34.8-16.8 12.3-6.2 24.4-12.5 36.5-19 12.3-6.6 24.5-13.4 36.6-20.3s24-14 35.7-21.1c11.2-6.8 22.4-13.8 33.4-21 10-6.5 20-13.2 29.8-20.2 8.5-6 16.9-12.3 25-18.8 6.5-5.1 12.6-10.5 18.5-16.3 4.1-4.1 8.2-8.5 11.1-13.5 1.1-1.7 1.9-3.6 2.4-5.6.8-3.4-.2-7.3-1.4-10.5-4.1-10.9-15.7-14.1-26.3-13.6-10.3.5-20.5 3.4-30.1 7.1l-5.1 2.1c-3 1.4-.6 4.3 1.9 3.1 5.7-2.6 11.6-4.7 17.7-6.2 9.4-2.4 20.8-4.6 29.7.1 4.5 2.4 7.2 6.8 8.3 11.7.3 1.4.5 2.8.6 4.1v.7c-.1.8-.3 1.5-.5 2.3-.1.2-.1.4-.2.6-.1.4.1-.2 0-.1s-.1.2-.2.4c-.2.4-.4.9-.6 1.3-.5 1-1 1.9-1.6 2.8-.3.5-.7 1-1 1.5l-.5.8-.3.3v.2c-1 1.1-1.9 2.2-2.8 3.2-4.8 5.3-9.9 10.2-15.3 14.8-7.1 6.1-14.2 11.6-21.8 17.2-9 6.6-18.1 13-27.4 19.3-10.3 6.9-20.7 13.7-31.3 20.3-11.3 7.1-22.7 14-34.2 20.8-11.8 6.9-23.6 13.7-35.6 20.4s-24 13.1-36 19.4c-11.5 6-23.1 11.8-34.8 17.5-10.8 5.2-21.7 10.2-32.7 15-9.7 4.2-19.4 8.2-29.4 11.9-4.3 1.6-8.6 3.1-12.9 4.5-2 .6-4 1.3-6.1 1.9-.9.3-1.9.5-2.8.8l-1.4.4-1 .3c-3.3.9-6.7 1.7-10 2.3-1.5.3-2.9.5-4.4.7l-2.1.2c-.8.1.3 0-.4 0H62c-7.2.3-16.2-1.3-21-6.9-5.4-6.4-3.2-15.9-.5-23.2 3.8-10 9.9-19.2 16.2-27.8 4.9-6.7 10.2-13.2 15.8-19.3.9-1 1.7-1.9 2.6-2.9 2.2-2.3-2.2-3.6-3.9-1.9z"/></g><g id="knowledge"><path class="cls-3" d="M386.8 331.8l5-3.3h-4.9c-.5 10.8-.1 21.6 1 32.2.1.9 5.1.5 5-.2-1.1-10.7-1.5-21.4-1-32.1 0-1-4.4-.3-4.9 0l-5 3.3c-.6.4 1.7.6 1.8.6.9.2 2 0 3-.5z"/><path class="cls-3" d="M387.9 362.8h8c.2 0 .1-.2 0-.4-.2-.4-.5-.9-.9-1.2-.4-.5-.9-1-1.3-1.4l-.4-.3c-.2-.1-.4-.3-.6-.4h-8c-.2 0-.1.2 0 .4.2.4.5.9.9 1.2.4.5.9 1 1.3 1.4l.4.3c.1.1.3.3.6.4zM200.6 9.9c-6.2 1.3-10.4 6.4-11.7 12.5-1.2 5.8-.7 13.2 4.2 17.2 4.4 3.6 11.7 3.1 15.7-1 2.2-2 2.7-5.3 1.3-7.9-1.3-2.7-3.4-4.9-6-6.5-6.1-3.1-15.5 1-14.2 8.7.3 1.9 5.3 1.4 5-.3-.5-3.3 2.1-8.4 6-6.1 1.9 1.3 3.4 3.1 4.4 5.1 1.2 2 .8 4.5-.9 6-2.6 2.7-6 2-8.2-.7-3-3.7-3.2-9.1-2.5-13.5s3.5-9.8 8.4-10.9c.8-.2 2.1-.8 1.6-1.8s-2.2-.9-3.1-.8zm157.1 92.4c11.8-13.5 23.7-26.9 35.8-40.2l-4.4-2c1.1 18.3 1.2 36.7.3 55-.1 1.9 4.6 3.5 4.7 1.3.9-18.3.8-36.7-.3-55-.1-1.5-3.2-3.3-4.4-2-12.1 13.3-24 26.7-35.8 40.2-1.4 1.7 2.9 4.1 4.1 2.7z"/><path class="cls-3" d="M370.3 86.6c8.2 1.8 16.3 4.1 24.2 6.9 1.1.4.7-1.1.4-1.5-.5-1.1-1.4-1.9-2.5-2.4-7.9-2.8-16-5.1-24.2-6.9-1.1-.2-.7 1-.4 1.5.6 1.1 1.4 1.9 2.5 2.4zM63.8 44.9c3.2 5.5 5.9 11.3 8 17.3 1.2 3.7 2.6 8.2 1.9 11.9v.4c0 .6.2-.3 0 .2 0 .3-.2.5-.3.8 0 0-.3.4 0 .2l-.3.3q.2-.2 0 0c-.4.3.3 0-.2 0h-.4c.5 0 .3 0 0 0h-.7c.2 0-.5-.2-.7-.2l-.6-.2c.5.2 0 0 0 0l-1.1-.6c-.3-.2-.7-.5-1-.7s-.7-.5-1-.7c-1.7-1.4-3.3-3-4.8-4.7-3.9-4.4-7.4-9.1-10.4-14.2-3.4-5.5-6.2-11.3-8.4-17.3-1.4-3.9-3-8.7-2.8-12.6v-1.1-.6c0-.6 0 .2 0 0s.2-.5.3-.8c0 0 0-.2.2-.3-.3.5 0 0 0 0 .5-.5 0 0 .3-.2s-.2 0 .2 0h.3c.5 0-.5 0 0 0s1.1.2.5 0c.4 0 .7.2 1 .3l.4.2c-.5-.2.3.2.4.2.9.5 1.7 1 2.4 1.6-.3-.2 0 0 0 0 .3.2.6.5.9.7.5.4.9.8 1.3 1.2 1 .9 1.9 1.9 2.8 2.9 4.6 4.8 8.4 10.2 11.7 16 .6 1.1 1.9 1.6 3.2 1.1 1.2-.6 1-2 .4-3-3.4-5.9-7.3-11.5-11.8-16.7-3-3.4-6.6-6.9-10.8-8.7-3-1.2-6.7-.9-8 2.5-1.6 4.1-.3 9 .8 13.1 1.9 6.5 4.6 12.8 7.9 18.7 3.3 6.2 7.3 12.1 11.8 17.5 3 3.6 6.5 7.4 10.8 9.7 2.9 1.5 6.8 2.4 8.9-.8 1-1.8 1.4-3.8 1.2-5.8 0-2.7-.6-5.4-1.4-8-2.2-7.6-5.4-14.8-9.5-21.6-.6-1.1-2-1.6-3.2-1.1-1 .8-.8 2.2-.3 3.1z"/><path class="cls-3" d="M59 40.8c6.3 0 12.7.5 18.9 1.7 2.3.4 4.7 1 6.9 1.8.9.3 1.9.7 2.8 1.1.3.2.6.3.9.5s.4.3 0 0l-.4-.4c-.2 0 0 .2 0 0 0 .2.2.4.3.6.2.5.4 1 .3 1.6-.2 1.1-.9 2.1-1.8 2.8-3 2.5-7.3 3.6-11 4.5-6 1.3-12.2 2-18.3 2-6.4.2-12.7-.3-19-1.2-4.3-.7-9.1-1.6-12.9-3.8-.7-.4.3.2-.3-.2.5.3-.3-.2 0 0l.5.4c.3.2 0 0 0 0-.3-.4-.5-.9-.6-1.3 0-1.1.2-2.1 1-2.8C29.1 45 34 43.9 37.9 43c6.8-1.8 13.8-2.5 20.9-2.4.5 0-1-1.4-1.1-1.5-.6-.5-1.7-1.7-2.6-1.7-6.7 0-13.5.6-20.1 1.9-4.1.9-9 2-12.2 4.9-1 .8-1.5 1.9-1.5 3.2 0 1.5 1.2 2.7 2.3 3.6 3.6 3.4 8.1 5.2 12.8 6.4 6.4 1.5 13 2.3 19.5 2.4 7 .2 14.1-.3 21-1.5 3.8-.7 20.4-4.1 14.4-11.1-3.5-4-8.7-6.2-13.8-7.4-7.3-1.7-14.8-2.5-22.4-2.4-.5 0 1 1.4 1.1 1.5.6.5 1.7 1.7 2.6 1.7z"/><path class="cls-3" d="M51.5 45.4c3.7-5 7.8-9.7 12.3-13.9 3-2.8 6.3-5.5 10.2-7.1.5-.2 1-.3 1.6-.4h.4c.6 0 .5 0 0 0h.4c-.6 0-.4 0 0 0h-.2c.4.1-.4-.5 0 0s.2.3 0 0c0 0 .4.8.2.3 0 .3.2.7.2 1 0 1.5 0 3-.4 4.5-.6 2.2-1.3 4.4-2.2 6.4-5.1 11.4-12.4 21.7-21.3 30.3-3.2 3.1-6.7 6.2-10.7 8.2-.6.3-1.2.5-1.8.7s-.6 0-.9.2H39h-.4s.6.2.2 0 .6.3 0 0c0 0-.4-.6 0 0 0 0 0-.2-.2-.3-.3-.5 0 0 0-.2-.2-.6-.3-1.3-.2-1.9 0-.9 0-1.9.3-2.8.5-2.4 1.3-4.7 2.3-6.9 2.8-6.5 6.4-12.6 10.6-18.2.6-.9.4-2-.5-2.6h-.2c-.7-.5-2.6-1.2-3.3-.2-4.2 5.6-7.9 11.6-10.8 17.9-1.8 4-3.8 8.8-3.2 13.3.5 3.8 3.8 5.9 7.5 5.5 4.1-.5 8-3.5 11-6 4.9-4.2 9.4-8.9 13.3-14 4.4-5.6 8.3-11.6 11.5-18 2.1-4.2 4.3-9.2 4.3-14s-2.3-6.9-6.2-7.1c-4.6-.2-9.1 3.3-12.4 6.1-5.6 4.8-10.7 10.3-15 16.3-.6.9-.4 2 .5 2.6h.2c.7.6 2.6 1.2 3.3.2z"/><path class="cls-3" d="M57.2 46.7s-2.6.2-2.1 2.5c.3 1 1.4 1.6 2.4 1.3 1-.3 1.6-1.4 1.3-2.4-.2-.7-.9-1.3-1.6-1.4zM15.5 304.5c-1.4 1.9-2.7 3.9-3.9 6-.6 1-1.2 2-1.8 3.1-.6 1-1.2 2.1-1.6 3.2-.7 1.9.8 3.5 2.6 4 1.3.3 2.7.4 4 .4l7.5.7c1 .1 1.9-.6 2-1.5v-.5c-.4-1.2-1.5-2.1-2.8-2.1l-5.6-.5-2.6-.2h-1.4c0-.1-.7-.2-.7-.2l.8.3.8.9v.5l.2-.5c0-.2.2-.5.4-.7l.9-1.6c.5-1 1.1-2 1.7-3 1.2-2 2.5-4 3.9-6 .2-.5.2-1.1 0-1.6-.3-.6-.8-1-1.3-1.3-1-.6-2.3-.3-3.1.6zm13.3-12.6v36.4c0 2.9 4.9 1.8 4.9-.9V291c0-2.8-4.9-1.8-4.9.9zm12.1 9.6h8.4s.3.1.4 0c-.2 0-.4-.1-.6-.2-.4-.2-.6-.7-.5-1.1q0-.2 0 0v.3c0 .2 0 .4-.2.6l-.4 1.1-.8 2.3-1.6 4.7c-.3 1.1.3 2.2 1.4 2.5 0 0 .2 0 .3.1 1.3.1 2.5-.7 2.9-2l1.8-5.1.9-2.7c.4-1.1.8-2.2.3-3.3-1-2-3.7-1.5-5.5-1.5h-5.6c-1.3-.1-2.5.7-2.9 2-.3 1.1.3 2.2 1.4 2.5.2-.3.3-.2.4-.2z"/></g></g></svg>